<svg width="128" height="128" viewBox="0 0 128 128" fill="none" xmlns="http://www.w3.org/2000/svg">
<path d="M63.8893 0C30.2102 0 2.62015 25.924 0 58.8663L34.3618 73.049C37.2726 71.0594 40.7923 69.9003 44.5749 69.9003C44.9162 69.9003 45.253 69.9094 45.5851 69.9277L60.8678 47.814V47.5037C60.8678 34.1972 71.7128 23.3686 85.0443 23.3686C98.3757 23.3686 109.221 34.1972 109.221 47.5037C109.221 60.8103 98.3757 71.6435 85.0443 71.6435C84.8597 71.6435 84.6798 71.6389 84.4953 71.6344L62.6992 87.1541C62.713 87.4416 62.7222 87.7291 62.7222 88.012C62.7222 98.0056 54.5804 106.133 44.5749 106.133C35.7918 106.133 28.4434 99.8719 26.7828 91.585L2.20499 81.4409C9.81635 108.305 34.5417 128 63.8893 128C99.2983 128 128 99.3426 128 64C128 28.6528 99.2983 0 63.8893 0ZM40.176 97.1093L32.3017 93.8603C33.6948 96.7625 36.112 99.1902 39.318 100.523C46.2466 103.407 54.2362 100.126 57.1239 93.2032C58.5217 89.8537 58.5309 86.1575 57.147 82.7989C55.7631 79.4403 53.1476 76.821 49.794 75.4246C46.4588 74.0419 42.8884 74.0922 39.7516 75.274L47.8888 78.6326C53 80.7591 55.4172 86.6184 53.286 91.7201C51.1594 96.8218 45.2871 99.2358 40.176 97.1093ZM101.155 47.5042C101.155 38.6377 93.926 31.4186 85.0461 31.4186C76.1616 31.4186 68.9331 38.6377 68.9331 47.5042C68.9331 56.3707 76.1616 63.5852 85.0461 63.5852C93.926 63.5852 101.155 56.3707 101.155 47.5042ZM72.9694 47.4768C72.9694 40.8053 78.3896 35.3978 85.0692 35.3978C91.7533 35.3978 97.1735 40.8053 97.1735 47.4768C97.1735 54.1483 91.7533 59.5558 85.0692 59.5558C78.3896 59.5558 72.9694 54.1483 72.9694 47.4768Z" fill="white"/>
</svg>
