<svg width="126" height="128" viewBox="0 0 126 128" fill="none" xmlns="http://www.w3.org/2000/svg">
<path d="M56.06 0C39.1021 0 24.9679 12.1865 22.005 28.2183C15.9937 28.7735 10.4067 31.541 6.33694 35.9797C2.2672 40.4184 0.00754134 46.2087 0 52.2181C0.00709089 58.6093 2.56088 64.7368 7.10107 69.2561C11.6413 73.7754 17.797 76.3174 24.2178 76.3245H60.4428C61.3309 76.3245 62.1827 75.9733 62.8107 75.3482C63.4387 74.7231 63.7915 73.8752 63.7915 72.9912C63.7915 72.1071 63.4387 71.2593 62.8107 70.6342C62.1827 70.0091 61.3309 69.6579 60.4428 69.6579H24.2125C19.5671 69.6536 15.1132 67.8149 11.8284 64.5452C8.54357 61.2755 6.69631 56.8421 6.69205 52.2181C6.69719 49.0553 7.56551 45.9533 9.20425 43.2436C10.843 40.5339 13.1905 38.3183 15.9961 36.8335C18.8016 35.3487 21.9597 34.6506 25.1329 34.8137C28.3061 34.9768 31.3751 35.995 34.0121 37.7596C34.7477 38.2249 35.6366 38.3864 36.4899 38.2097C37.3432 38.0331 38.0937 37.5323 38.582 36.8137C39.0703 36.095 39.2579 35.2152 39.1049 34.3611C38.9519 33.5071 38.4704 32.746 37.7627 32.2396C35.0455 30.4152 31.9824 29.1629 28.7613 28.5597C30.1272 22.3612 33.5782 16.8128 38.5434 12.8326C43.5086 8.85232 49.6902 6.67888 56.0653 6.67192C62.8746 6.68005 69.447 9.16008 74.5506 13.6471C79.6541 18.1341 82.9382 24.32 83.7873 31.045C82.8816 31.531 82.0083 32.0743 81.1726 32.6716C80.7988 32.9206 80.4791 33.2419 80.2328 33.6165C79.9864 33.991 79.8184 34.4112 79.7387 34.8518C79.6591 35.2924 79.6694 35.7445 79.7691 36.181C79.8688 36.6176 80.0558 37.0297 80.319 37.3927C80.5822 37.7558 80.9161 38.0623 81.3009 38.2941C81.6858 38.5258 82.1135 38.6781 82.5587 38.7417C83.0039 38.8053 83.4575 38.779 83.8922 38.6643C84.327 38.5496 84.7341 38.3489 85.0892 38.0742C88.069 35.9281 91.6557 34.7779 95.3336 34.7889C99.3645 34.7965 103.27 36.1841 106.395 38.7187C109.52 41.2532 111.674 44.7806 112.495 48.7088C112.673 49.5751 113.19 50.3355 113.932 50.8226C114.673 51.3097 115.579 51.4836 116.449 51.3061C117.32 51.1286 118.083 50.6142 118.573 49.876C119.062 49.1379 119.237 48.2365 119.058 47.3701C117.924 41.9385 114.947 37.0606 110.627 33.555C106.307 30.0493 100.907 28.1293 95.3336 28.117C93.6075 28.1219 91.8868 28.3096 90.2007 28.677C87.4092 12.4159 73.1786 0 56.06 0ZM83.8783 56.746C83.0169 56.7205 82.1638 56.9191 81.403 57.322C80.7291 57.6985 80.1544 58.2285 79.7259 58.8687C79.2763 59.5644 78.9585 60.3362 78.7883 61.146C78.5926 62.0466 78.4956 62.9658 78.499 63.8873C78.499 64.8526 78.5954 65.7699 78.7883 66.6446C78.9812 67.5192 79.2973 68.2819 79.7259 68.9379C80.1475 69.5936 80.7231 70.1372 81.403 70.5219C82.0834 70.9112 82.9086 71.1085 83.8783 71.1085C84.8428 71.1085 85.6679 70.9112 86.343 70.5219C87.0147 70.1363 87.5827 69.5947 87.9986 68.9432C88.4272 68.2819 88.7326 67.5192 88.9255 66.6446C89.1184 65.7699 89.2148 64.8526 89.2148 63.8873C89.2148 62.9273 89.1184 62.01 88.9255 61.146C88.7579 60.3389 88.4437 59.5689 87.9986 58.874C87.5788 58.2328 87.0111 57.7007 86.343 57.322C85.5861 56.919 84.7363 56.7204 83.8783 56.746ZM118.63 56.746C117.768 56.7205 116.915 56.9191 116.154 57.322C115.481 57.6985 114.906 58.2285 114.477 58.8687C114.028 59.5644 113.71 60.3362 113.54 61.146C113.346 62.0468 113.251 62.966 113.256 63.8873C113.256 64.8526 113.347 65.7699 113.54 66.6446C113.733 67.5192 114.049 68.2819 114.477 68.9379C114.899 69.5936 115.475 70.1372 116.154 70.5219C116.835 70.9112 117.66 71.1085 118.63 71.1085C119.594 71.1085 120.419 70.9112 121.094 70.5219C121.768 70.137 122.338 69.5953 122.755 68.9432C123.173 68.2819 123.484 67.5192 123.677 66.6446C123.87 65.7699 123.966 64.8526 123.966 63.8873C123.966 62.9273 123.87 62.01 123.677 61.146C123.509 60.3389 123.195 59.5689 122.75 58.874C122.332 58.2334 121.766 57.7014 121.1 57.322C120.341 56.9179 119.49 56.7192 118.63 56.746ZM72.8892 57.1087L68.3886 60.4047L70.0656 62.698L72.616 60.7353V70.7459H75.8468V57.1087H72.8892ZM107.641 57.1087L103.135 60.4047L104.817 62.698L107.373 60.7353V70.7459H110.604V57.1087H107.641ZM83.8783 59.482C84.307 59.482 84.6445 59.6313 84.9124 59.93C85.1803 60.234 85.3786 60.6073 85.5232 61.05C85.6625 61.4926 85.759 61.9726 85.8125 62.4846C85.9127 63.4295 85.9127 64.3823 85.8125 65.3273C85.759 65.8446 85.6625 66.3246 85.5232 66.7672C85.3993 67.1785 85.1914 67.5598 84.9124 67.8872C84.7853 68.0353 84.6264 68.1529 84.4474 68.2314C84.2683 68.3099 84.0738 68.3472 83.8783 68.3406C83.6809 68.3462 83.4847 68.308 83.3039 68.2286C83.1232 68.1493 82.9625 68.0308 82.8335 67.8819C82.5475 67.5579 82.3322 67.1784 82.2013 66.7672C82.048 66.2998 81.9474 65.8168 81.9013 65.3273C81.8051 64.3821 81.8051 63.4298 81.9013 62.4846C81.9548 61.9726 82.0566 61.4926 82.2013 61.0446C82.3321 60.6335 82.5474 60.2539 82.8335 59.93C82.964 59.7836 83.1252 59.6675 83.3058 59.5901C83.4864 59.5127 83.6818 59.4758 83.8783 59.482ZM118.63 59.482C119.058 59.482 119.401 59.6313 119.664 59.93C119.932 60.234 120.13 60.6073 120.275 61.05C120.419 61.4926 120.51 61.9726 120.564 62.4846C120.664 63.4295 120.664 64.3823 120.564 65.3273C120.51 65.8446 120.419 66.3246 120.275 66.7672C120.151 67.1785 119.943 67.5598 119.664 67.8872C119.537 68.0353 119.378 68.1529 119.199 68.2314C119.02 68.3099 118.825 68.3472 118.63 68.3406C118.432 68.3458 118.236 68.3074 118.056 68.2281C117.875 68.1488 117.714 68.0305 117.585 67.8819C117.301 67.5577 117.087 67.1781 116.958 66.7672C116.805 66.2998 116.704 65.8168 116.658 65.3273C116.562 64.3821 116.562 63.4297 116.658 62.4846C116.712 61.9726 116.808 61.4926 116.958 61.0446C117.087 60.6337 117.3 60.2541 117.585 59.93C117.715 59.7836 117.877 59.6675 118.057 59.5901C118.238 59.5127 118.433 59.4758 118.63 59.482ZM106.891 78.2018C106.027 78.1782 105.172 78.3786 104.41 78.7831C103.737 79.1609 103.164 79.6929 102.738 80.3351C102.31 80.9857 101.993 81.7377 101.801 82.6071C101.605 83.5077 101.508 84.4269 101.511 85.3484C101.511 86.3084 101.608 87.231 101.801 88.1003C101.993 88.975 102.304 89.743 102.738 90.4043C103.161 91.0559 103.734 91.5972 104.41 91.983C105.171 92.3917 106.026 92.594 106.891 92.5696C107.855 92.5696 108.675 92.3723 109.355 91.983C110.026 91.5976 110.592 91.0558 111.006 90.4043C111.451 89.6974 111.767 88.9173 111.938 88.1003C112.131 87.231 112.227 86.3137 112.227 85.3484C112.227 84.3884 112.131 83.4711 111.938 82.6071C111.768 81.7997 111.452 81.0298 111.006 80.3351C110.587 79.6924 110.019 79.16 109.35 78.7831C108.593 78.3803 107.743 78.1818 106.885 78.2071L106.891 78.2018ZM72.5892 78.5751L68.0832 81.8657L69.7656 84.159L72.3159 82.1911V92.207H75.5521V78.5698L72.5892 78.5751ZM83.9748 78.5751L79.4688 81.8657L81.1512 84.159L83.7069 82.1911V92.207H86.9377V78.5698L83.9748 78.5751ZM95.3121 78.5751L90.8115 81.8657L92.4885 84.159L95.0443 82.1911V92.207H98.2751V78.5698L95.3121 78.5751ZM106.885 80.9377C107.314 80.9377 107.657 81.0871 107.925 81.3911C108.201 81.7203 108.409 82.101 108.536 82.5111C108.675 82.9537 108.771 83.4284 108.819 83.9457C108.915 84.8891 108.915 85.8397 108.819 86.783C108.777 87.2718 108.682 87.7546 108.536 88.223C108.411 88.6342 108.204 89.0155 107.925 89.343C107.797 89.4907 107.638 89.6081 107.459 89.6866C107.28 89.7651 107.086 89.8025 106.891 89.7963C106.693 89.8027 106.496 89.7653 106.314 89.6869C106.133 89.6085 105.971 89.4911 105.84 89.343C105.556 89.0165 105.343 88.6353 105.214 88.223C105.06 87.7555 104.96 87.2726 104.914 86.783C104.816 85.8397 104.816 84.889 104.914 83.9457C104.967 83.4284 105.064 82.9537 105.214 82.5057C105.344 82.0954 105.557 81.716 105.84 81.3911C105.971 81.2427 106.133 81.125 106.314 81.0466C106.496 80.9682 106.687 80.931 106.885 80.9377ZM70.8318 97.3269C70.2075 97.3092 69.5891 97.4525 69.0369 97.7429C68.5476 98.0168 68.1307 98.4025 67.8206 98.8682C67.493 99.3727 67.2623 99.9333 67.1402 100.522C66.9955 101.151 66.9259 101.812 66.9259 102.511C66.9259 103.21 66.9955 103.876 67.1402 104.511C67.2627 105.104 67.4933 105.67 67.8206 106.18C68.1263 106.655 68.5438 107.049 69.0369 107.327C69.5298 107.609 70.1299 107.753 70.8318 107.753C71.4558 107.772 72.0736 107.625 72.6213 107.327C73.1105 107.047 73.5242 106.654 73.8269 106.18C74.1323 105.7 74.3627 105.145 74.4966 104.511C74.6402 103.854 74.7121 103.183 74.7109 102.511C74.7109 101.818 74.6359 101.151 74.4966 100.522C74.3754 99.9347 74.1485 99.3746 73.8269 98.8682C73.5196 98.4053 73.1065 98.0214 72.6213 97.7482C72.0725 97.4529 71.4555 97.3059 70.8318 97.3216V97.3269ZM87.3663 97.3269C86.7402 97.308 86.1199 97.4514 85.5661 97.7429C85.0788 98.0174 84.6638 98.4031 84.3552 98.8682C84.0272 99.3725 83.7965 99.9331 83.6747 100.522C83.5294 101.175 83.4575 101.842 83.4604 102.511C83.4604 103.21 83.5301 103.876 83.6747 104.511C83.7971 105.104 84.0277 105.67 84.3552 106.18C84.666 106.66 85.0732 107.044 85.5661 107.327C86.0644 107.609 86.6645 107.753 87.3663 107.753C87.9904 107.772 88.6081 107.625 89.1559 107.327C89.6431 107.047 90.0549 106.653 90.3561 106.18C90.6668 105.7 90.8919 105.145 91.0312 104.511C91.3197 103.197 91.3197 101.836 91.0312 100.522C90.9073 99.9347 90.6786 99.3747 90.3561 98.8682C90.0505 98.4058 89.6392 98.022 89.1559 97.7482C88.607 97.4529 87.9901 97.3059 87.3663 97.3216V97.3269ZM114.735 97.3269C114.108 97.308 113.488 97.4514 112.934 97.7429C112.447 98.0174 112.032 98.4031 111.723 98.8682C111.396 99.3727 111.165 99.9333 111.043 100.522C110.898 101.151 110.829 101.812 110.829 102.511C110.829 103.21 110.898 103.876 111.043 104.511C111.166 105.104 111.396 105.67 111.723 106.18C112.034 106.66 112.441 107.044 112.934 107.327C113.433 107.609 114.033 107.753 114.735 107.753C115.431 107.753 116.037 107.609 116.524 107.327C117.011 107.047 117.423 106.653 117.724 106.18C118.035 105.7 118.26 105.145 118.399 104.511C118.543 103.854 118.615 103.183 118.614 102.511C118.614 101.818 118.539 101.151 118.399 100.522C118.275 99.9348 118.047 99.3749 117.724 98.8682C117.419 98.4058 117.007 98.022 116.524 97.7482C115.975 97.4532 115.358 97.3061 114.735 97.3216V97.3269ZM79.0616 97.5936L75.7932 99.9829L77.0095 101.642L78.8633 100.223V107.487H81.2101V97.5882L79.0616 97.5936ZM95.4997 97.5936L92.2313 99.9829L93.4476 101.642L95.3014 100.223V107.487H97.6482V97.5882L95.4997 97.5936ZM122.868 97.5936L119.594 99.9829L120.816 101.642L122.67 100.223V107.487H125.016V97.5882L122.868 97.5936ZM70.8318 99.3109C71.1425 99.3109 71.3944 99.4175 71.5819 99.6415C71.7843 99.8766 71.9357 100.151 72.0266 100.447C72.1344 100.787 72.2063 101.137 72.2409 101.492C72.31 102.177 72.31 102.866 72.2409 103.551C72.2069 103.908 72.135 104.26 72.0266 104.601C71.9364 104.899 71.785 105.176 71.5819 105.412C71.4894 105.519 71.374 105.604 71.2441 105.66C71.1143 105.716 70.9733 105.743 70.8318 105.737C70.69 105.743 70.5487 105.717 70.4181 105.661C70.2875 105.606 70.1708 105.523 70.0763 105.417C69.8695 105.18 69.7145 104.902 69.6209 104.601C69.5079 104.261 69.4342 103.908 69.4012 103.551C69.3332 102.866 69.3332 102.177 69.4012 101.492C69.4331 101.137 69.505 100.786 69.6155 100.447C69.7111 100.149 69.868 99.8751 70.0763 99.6415C70.1701 99.5345 70.2864 99.4494 70.417 99.3922C70.5475 99.3351 70.6892 99.3073 70.8318 99.3109ZM87.3663 99.3109C87.6771 99.3109 87.9236 99.4175 88.1165 99.6415C88.317 99.8771 88.4665 100.151 88.5558 100.447C88.6644 100.787 88.7362 101.137 88.7701 101.492C88.8401 102.177 88.8401 102.866 88.7701 103.551C88.737 103.908 88.6652 104.26 88.5558 104.601C88.4672 104.899 88.3176 105.175 88.1165 105.412C88.024 105.519 87.9086 105.604 87.7787 105.66C87.6488 105.716 87.5079 105.743 87.3663 105.737C87.2245 105.743 87.0833 105.717 86.9527 105.661C86.8221 105.606 86.7054 105.523 86.6109 105.417C86.4013 105.181 86.2442 104.903 86.1501 104.601C86.037 104.261 85.965 103.908 85.9358 103.551C85.8988 103.205 85.8792 102.858 85.8768 102.511C85.8768 102.207 85.8983 101.866 85.9304 101.492C85.962 101.136 86.0357 100.785 86.1501 100.447C86.2456 100.149 86.4026 99.8751 86.6109 99.6415C86.7049 99.5348 86.8212 99.4499 86.9517 99.3927C87.0823 99.3356 87.2238 99.3077 87.3663 99.3109ZM114.735 99.3109C115.045 99.3109 115.292 99.4175 115.485 99.6415C115.685 99.8771 115.835 100.151 115.924 100.447C116.033 100.787 116.105 101.137 116.138 101.492C116.206 102.177 116.206 102.866 116.138 103.551C116.105 103.908 116.033 104.26 115.924 104.601C115.835 104.899 115.686 105.175 115.485 105.412C115.392 105.519 115.277 105.603 115.147 105.659C115.017 105.716 114.876 105.742 114.735 105.737C114.592 105.744 114.45 105.718 114.318 105.663C114.186 105.607 114.069 105.524 113.974 105.417C113.768 105.179 113.613 104.901 113.518 104.601C113.41 104.26 113.338 103.908 113.304 103.551C113.267 103.205 113.247 102.858 113.245 102.511C113.245 102.207 113.267 101.866 113.299 101.492C113.333 101.137 113.405 100.787 113.513 100.447C113.615 100.152 113.771 99.8791 113.974 99.6415C114.068 99.5338 114.185 99.4483 114.317 99.3911C114.448 99.3339 114.591 99.3065 114.735 99.3109ZM105.712 108.985C105.085 108.968 104.465 109.113 103.912 109.407C103.423 109.679 103.006 110.063 102.695 110.527C102.368 111.031 102.137 111.592 102.015 112.18C101.723 113.494 101.723 114.855 102.015 116.169C102.138 116.764 102.368 117.331 102.695 117.844C103.011 118.324 103.413 118.708 103.912 118.991C104.41 119.273 105.01 119.417 105.712 119.417C106.336 119.435 106.953 119.288 107.501 118.991C107.989 118.711 108.401 118.317 108.702 117.844C109.012 117.364 109.237 116.804 109.377 116.169C109.665 114.857 109.663 113.497 109.371 112.185C109.25 111.598 109.024 111.038 108.702 110.532C108.398 110.067 107.986 109.681 107.501 109.407C106.952 109.114 106.335 108.968 105.712 108.985ZM122.123 108.985C121.497 108.968 120.876 109.114 120.323 109.407C119.835 109.68 119.418 110.063 119.107 110.527C118.779 111.031 118.548 111.592 118.426 112.18C118.136 113.494 118.136 114.855 118.426 116.169C118.549 116.764 118.779 117.332 119.107 117.844C119.414 118.318 119.831 118.711 120.323 118.991C120.816 119.273 121.416 119.417 122.123 119.417C122.747 119.436 123.365 119.289 123.913 118.991C124.398 118.71 124.808 118.317 125.108 117.844C125.418 117.364 125.643 116.804 125.783 116.169C126.072 114.857 126.072 113.498 125.783 112.185C125.66 111.598 125.431 111.038 125.108 110.532C124.805 110.067 124.396 109.682 123.913 109.407C123.363 109.113 122.746 108.968 122.123 108.985ZM113.845 109.252L110.572 111.641L111.793 113.305L113.647 111.881V119.151H115.994V109.252H113.845ZM105.712 110.975C106.017 110.975 106.269 111.081 106.462 111.3C106.663 111.537 106.813 111.813 106.901 112.111C107.011 112.449 107.083 112.797 107.116 113.151C107.184 113.837 107.184 114.528 107.116 115.215C107.082 115.571 107.01 115.924 106.901 116.265C106.813 116.563 106.663 116.839 106.462 117.076C106.369 117.182 106.253 117.265 106.123 117.32C105.994 117.376 105.853 117.402 105.712 117.396C105.569 117.402 105.427 117.377 105.295 117.321C105.164 117.266 105.046 117.182 104.951 117.076C104.745 116.84 104.59 116.564 104.496 116.265C104.386 115.924 104.314 115.572 104.281 115.215C104.244 114.869 104.225 114.522 104.222 114.175C104.222 113.865 104.238 113.524 104.276 113.151C104.311 112.797 104.385 112.448 104.496 112.111C104.603 111.791 104.753 111.524 104.951 111.3C105.046 111.193 105.163 111.109 105.295 111.053C105.426 110.996 105.569 110.97 105.712 110.975ZM122.123 110.975C122.429 110.975 122.68 111.081 122.873 111.3C123.075 111.537 123.224 111.813 123.313 112.111C123.421 112.449 123.493 112.797 123.527 113.151C123.597 113.837 123.597 114.528 123.527 115.215C123.494 115.572 123.422 115.924 123.313 116.265C123.222 116.563 123.071 116.839 122.868 117.076C122.775 117.182 122.66 117.266 122.53 117.321C122.4 117.377 122.259 117.402 122.118 117.396C121.976 117.401 121.835 117.375 121.704 117.32C121.574 117.265 121.457 117.181 121.362 117.076C121.156 116.84 121.001 116.564 120.907 116.265C120.797 115.924 120.725 115.572 120.693 115.215C120.624 114.528 120.624 113.837 120.693 113.151C120.726 112.797 120.798 112.449 120.907 112.111C121.014 111.791 121.164 111.524 121.362 111.3C121.457 111.194 121.575 111.109 121.706 111.053C121.838 110.997 121.98 110.97 122.123 110.975ZM70.0817 111.961C69.6488 111.95 69.2203 112.051 68.8386 112.255C68.5001 112.444 68.2117 112.711 67.9974 113.033C67.768 113.383 67.6063 113.772 67.5206 114.18C67.4208 114.634 67.3723 115.097 67.3759 115.561C67.3759 116.041 67.4241 116.505 67.5206 116.948C67.6081 117.358 67.7697 117.748 67.9974 118.1C68.2118 118.436 68.4957 118.697 68.8386 118.895C69.2193 119.102 69.6481 119.205 70.0817 119.193C70.5639 119.193 70.9818 119.087 71.3194 118.895C71.6586 118.701 71.9454 118.428 72.1552 118.1C72.3775 117.744 72.5353 117.353 72.6213 116.943C72.8203 116.032 72.8203 115.09 72.6213 114.18C72.5366 113.773 72.3787 113.385 72.1552 113.033C71.9437 112.711 71.657 112.443 71.3194 112.255C70.9415 112.051 70.5165 111.95 70.087 111.961H70.0817ZM75.7182 112.148L73.4518 113.801L74.2984 114.959L75.5843 113.972V119.007H77.2077V112.148H75.7182ZM70.0817 113.343C70.296 113.343 70.4728 113.417 70.6014 113.567C70.7419 113.73 70.846 113.921 70.9068 114.127C70.9812 114.363 71.0314 114.606 71.0568 114.852C71.0783 115.113 71.0943 115.343 71.0943 115.561C71.0943 115.775 71.0783 116.02 71.0568 116.281C71.0317 116.528 70.9814 116.771 70.9068 117.007C70.8459 117.213 70.7418 117.404 70.6014 117.567C70.5375 117.641 70.4576 117.7 70.3677 117.74C70.2777 117.78 70.18 117.799 70.0817 117.796C69.9826 117.799 69.884 117.78 69.7932 117.74C69.7024 117.7 69.6216 117.641 69.5566 117.567C69.414 117.403 69.3065 117.213 69.2405 117.007C69.163 116.771 69.1127 116.528 69.0905 116.281C69.0442 115.806 69.0442 115.327 69.0905 114.852C69.113 114.605 69.1634 114.362 69.2405 114.127C69.3079 113.92 69.4174 113.729 69.562 113.567C69.6269 113.494 69.7071 113.436 69.7969 113.397C69.8867 113.359 69.9839 113.34 70.0817 113.343ZM90.3078 120.777C89.8754 120.764 89.4468 120.863 89.0648 121.065C88.7257 121.254 88.4372 121.521 88.2236 121.844C87.996 122.192 87.8361 122.579 87.7521 122.985C87.5475 123.897 87.5475 124.842 87.7521 125.753C87.8366 126.165 87.9964 126.557 88.2236 126.911C88.4359 127.24 88.7243 127.515 89.0648 127.711C89.4464 127.914 89.8752 128.013 90.3078 127.999C90.741 128.013 91.1702 127.911 91.5509 127.705C91.8882 127.511 92.1731 127.238 92.3814 126.911C92.6043 126.555 92.7621 126.163 92.8475 125.753C93.0523 124.842 93.0523 123.897 92.8475 122.985C92.7627 122.58 92.6048 122.193 92.3814 121.844C92.1718 121.521 91.8868 121.254 91.5509 121.065C91.1692 120.862 90.7404 120.763 90.3078 120.777ZM95.9444 120.959L93.678 122.612L94.5245 123.764L95.8104 122.777V127.817H97.4339V120.959H95.9444ZM90.3078 122.148C90.5222 122.148 90.699 122.223 90.8329 122.377C90.9714 122.542 91.0753 122.732 91.1383 122.937C91.2123 123.171 91.2608 123.413 91.283 123.657C91.3321 124.132 91.3321 124.611 91.283 125.087C91.2611 125.335 91.2126 125.58 91.1383 125.817C91.0744 126.022 90.9706 126.212 90.8329 126.377C90.7676 126.451 90.6866 126.51 90.5958 126.548C90.505 126.587 90.4066 126.605 90.3078 126.601C90.2091 126.605 90.1109 126.586 90.0201 126.548C89.9293 126.509 89.8483 126.451 89.7828 126.377C89.6396 126.214 89.5319 126.024 89.4667 125.817C89.389 125.58 89.3387 125.335 89.3166 125.087C89.2695 124.611 89.2695 124.133 89.3166 123.657C89.3392 123.412 89.3896 123.171 89.4667 122.937C89.5326 122.73 89.6422 122.539 89.7881 122.377C89.8521 122.303 89.9319 122.244 90.0219 122.204C90.1118 122.164 90.2095 122.145 90.3078 122.148Z" fill="white"/>
</svg>
