<svg width="128" height="90" viewBox="0 0 128 90" fill="none" xmlns="http://www.w3.org/2000/svg">
<path fill-rule="evenodd" clip-rule="evenodd" d="M114.007 2.67632C119.518 4.15146 123.849 8.48206 125.324 13.9928C127.989 23.971 128 44.8021 128 44.8021C128 44.8021 128 65.6333 125.324 75.6116C123.849 81.1222 119.518 85.4528 114.007 86.9277C104.029 89.6042 63.9998 89.6042 63.9998 89.6042C63.9998 89.6042 23.971 89.6042 13.9927 86.9277C8.48207 85.4528 4.15146 81.1222 2.67632 75.6116C0 65.6333 0 44.8021 0 44.8021C0 44.8021 0 23.971 2.67632 13.9928C4.15146 8.48206 8.48207 4.15146 13.9927 2.67632C23.971 8.04663e-07 63.9998 0 63.9998 0C63.9998 0 104.029 8.04663e-07 114.007 2.67632ZM84.4413 44.8039L51.1874 64.0016V25.6059L84.4413 44.8039Z" fill="white"/>
</svg>
