<svg width="108" height="128" viewBox="0 0 108 128" fill="none" xmlns="http://www.w3.org/2000/svg">
<path d="M75.6363 95.6248L61.2514 109.53C58.766 112.02 55.3258 113.06 51.5282 113.06C47.7307 113.06 44.2905 112.02 41.7997 109.53L18.6944 86.259C16.2036 83.7682 14.9502 80.1253 14.9502 76.3224C14.9502 72.5195 16.2036 69.0847 18.6944 66.5939L41.7304 43.2326C44.2212 40.7417 47.7307 39.7924 51.5282 39.7924C55.3258 39.7924 58.766 40.8324 61.2514 43.3232L75.6363 57.2227C78.3777 59.9695 82.9167 59.8735 85.7702 57.02C88.6237 54.1612 88.7197 49.6222 85.9782 46.8808L72.0627 32.8213C68.4698 29.2694 63.9512 26.7985 59.022 25.6902L72.1801 12.3401C74.9322 9.59865 74.8362 5.05439 71.9827 2.2009C69.1292 -0.652595 64.585 -0.743267 61.8382 1.99822L7.96845 55.8733C2.73615 61.1109 0 68.338 0 76.3278C0 84.3175 2.73615 91.7686 7.96845 96.9956L31.1538 120.256C36.3861 125.477 43.6185 128 51.6029 128C59.5874 128 66.8198 125.269 72.0574 120.032L85.9729 105.967C88.7143 103.225 88.6183 98.6863 85.7648 95.8329C82.9113 92.9794 78.3724 92.8834 75.6363 95.6248ZM100.752 69.3834H46.6426C42.8984 69.3834 39.8689 72.6049 39.8689 76.5624C39.8689 80.52 42.8984 83.7415 46.6426 83.7415H100.752C104.491 83.7415 107.526 80.52 107.526 76.5624C107.526 72.6049 104.491 69.3834 100.752 69.3834Z" fill="white"/>
</svg>
