<svg width="128" height="128" viewBox="0 0 128 128" fill="none" xmlns="http://www.w3.org/2000/svg">
<path fill-rule="evenodd" clip-rule="evenodd" d="M0 64C0 28.671 28.671 0 64 0C99.329 0 128 28.671 128 64C128 99.329 99.329 128 64 128C28.671 128 0 99.329 0 64ZM101.6 56.5677C102.761 57.2387 103.587 57.5742 104.929 57.5742C108.077 57.5742 110.916 55.071 110.916 51.5613C110.916 48.4903 109.6 46.8903 107.587 45.729C93.1613 37.3161 73.4193 33.3936 54.5806 33.3936C43.5097 33.3936 33.3419 34.6581 24.2581 37.3161C21.9355 37.9871 19.7677 39.9742 19.7677 43.4839C19.7677 46.9161 22.3742 49.5742 25.7806 49.5742C26.8137 49.5742 27.7929 49.287 28.6284 49.042C28.7948 48.9932 28.9554 48.9461 29.1097 48.9032C50.3742 42.9678 83.2258 45.6 101.6 56.5677ZM94.0988 76.34C94.9137 76.7827 95.7528 77.2387 96.929 77.2387C99.7419 77.2387 101.91 74.9936 101.935 72.2065C101.935 69.9613 101.11 68.3613 99.0194 67.1226C86.271 59.5355 70.0903 55.3807 53.3419 55.3807C42.6065 55.3807 35.2774 56.8774 28.1032 58.8903C25.4452 59.6387 24.1032 61.471 24.1032 64.2323C24.1032 66.9936 26.3484 69.2387 29.1097 69.2387C29.9638 69.2387 30.5527 69.0572 31.2974 68.8277C31.5651 68.7452 31.853 68.6565 32.1806 68.5677C53.5742 62.7613 77.6258 66.6065 93.7548 76.1548C93.8696 76.2154 93.9839 76.2775 94.0988 76.34ZM87.2258 93.2387C88.2323 93.8323 88.9032 94.1677 89.9871 94.1677C92.0774 94.1677 93.9097 92.5419 93.9097 90.1936C93.9097 87.8452 92.9806 86.9419 91.4064 85.9355C72.9806 74.9161 51.3806 74.5032 30.2452 79.1742C28.3097 79.5871 26.7355 80.8516 26.7355 83.5097C26.7355 85.6 28.3097 87.5871 30.8129 87.5871C31.4006 87.5871 32.3383 87.3325 33.2013 87.0982C33.4373 87.0341 33.6677 86.9715 33.8839 86.9161C52.3871 83.1226 71.1226 83.5355 87.2258 93.2387Z" fill="white"/>
</svg>
