<svg width="128" height="117" viewBox="0 0 128 117" fill="none" xmlns="http://www.w3.org/2000/svg">
<path d="M80.8635 0.00470906C81.0661 0.0035008 81.2686 0.00229253 81.4772 0.00104766C82.1466 -0.00100835 82.8154 0.0079353 83.4847 0.0172037C83.9536 0.0185078 84.4226 0.0192199 84.8915 0.0193687C85.8762 0.0212592 86.8606 0.0282133 87.8453 0.0391253C89.0953 0.0528823 90.3452 0.0575146 91.5953 0.0586578C92.5655 0.0600301 93.5357 0.0647478 94.506 0.0705717C94.966 0.0732588 95.4261 0.0753377 95.8861 0.07675C101.368 0.100657 106.875 0.432133 111.001 4.47875C115.703 9.70368 115.919 17.2381 115.98 23.874C115.99 24.6445 116 25.415 116.01 26.1856C116.025 27.3775 116.038 28.5694 116.05 29.7614C115.689 40.0718 115.689 40.0718 119.573 49.2331C121.58 51.1744 124.088 52.0397 126.689 52.9046C127.55 53.205 127.55 53.205 127.856 53.5115C127.938 54.8103 127.939 56.111 127.946 57.412C127.952 58.0653 127.965 58.7181 127.979 59.3712C127.982 59.7858 127.984 60.2004 127.986 60.615C127.993 61.1826 127.993 61.1826 128 61.7617C127.856 62.7051 127.856 62.7051 127.291 63.2771C126.459 63.7145 125.643 63.9421 124.734 64.1799C121.991 64.998 119.956 66.1339 118.442 68.6235C116.584 72.5211 116.479 76.6783 116.375 80.9068C116.363 81.3348 116.351 81.7628 116.339 82.1908C116.289 83.9917 116.241 85.7927 116.196 87.5937C115.702 106.872 115.702 106.872 110.517 112.292C107.47 115.049 103.825 116.067 99.7865 116.082C99.561 116.084 99.3356 116.086 99.1033 116.089C98.363 116.095 97.6228 116.098 96.8825 116.101C96.5019 116.103 96.5019 116.103 96.1136 116.105C94.773 116.111 93.4323 116.116 92.0916 116.119C90.7073 116.122 89.3231 116.133 87.9388 116.145C86.873 116.153 85.8072 116.155 84.7414 116.156C84.2309 116.158 83.7204 116.162 83.21 116.167C82.4969 116.175 81.7843 116.174 81.0712 116.172C80.7555 116.178 80.7555 116.178 80.4334 116.184C79.4765 116.174 78.8908 116.071 78.0791 115.553C77.4239 114.532 77.4302 113.635 77.4485 112.46C77.4474 112.226 77.4462 111.992 77.445 111.75C77.4427 110.977 77.4493 110.203 77.4562 109.43C77.4569 108.892 77.4572 108.354 77.457 107.816C77.458 106.688 77.4631 105.561 77.4713 104.434C77.4817 102.989 77.484 101.544 77.4836 100.099C77.4837 98.9884 77.4871 97.8774 77.4915 96.7664C77.4935 96.2336 77.4947 95.7009 77.4952 95.1682C77.4965 94.4236 77.5019 93.6791 77.5084 92.9346C77.5081 92.7145 77.5078 92.4945 77.5076 92.2678C77.5218 91.1578 77.5637 90.2926 78.2103 89.3667C79.5262 88.7087 81.2851 89.0033 82.7469 89.0034C83.3973 89.0028 84.0476 88.9972 84.698 88.9914C85.1112 88.9905 85.5243 88.9899 85.9375 88.9896C86.314 88.9883 86.6904 88.9871 87.0783 88.9858C88.0169 89.0602 88.0169 89.0602 88.9362 89.6731C89.3607 90.9802 89.2646 92.3364 89.2427 93.6953C89.2084 97.568 89.386 101.434 89.5492 105.302C93.5424 106.014 98.1377 105.961 101.98 104.613C103.648 103.415 104.079 101.987 104.441 100.063C104.667 98.4499 104.663 96.8386 104.671 95.212C104.675 94.8371 104.68 94.4622 104.684 94.0759C104.699 92.8829 104.709 91.6898 104.719 90.4967C104.887 69.9535 104.887 69.9535 110.082 63.318C110.432 62.8345 110.432 62.8345 110.79 62.3412C111.743 61.3447 112.768 60.6201 113.912 59.8584C114.712 59.3113 115.461 58.7214 116.211 58.1083C115.996 57.9562 115.781 57.8041 115.559 57.6474C110.361 53.9251 107.164 50.0629 105.791 43.7049C105.22 40.117 105.106 36.4994 105.017 32.8737C105.011 32.6498 105.006 32.426 105 32.1954C104.949 30.0908 104.904 27.986 104.863 25.8812C104.84 24.7179 104.813 23.5548 104.783 22.3917C104.773 21.9549 104.764 21.518 104.757 21.0811C104.719 16.62 104.719 16.62 102.976 12.5998C100.415 10.324 96.8092 10.5558 93.5714 10.5695C93.2846 10.5684 92.9978 10.5672 92.7023 10.5659C92.4273 10.5663 92.1524 10.5667 91.8691 10.5671C91.6219 10.5675 91.3746 10.5678 91.1199 10.5682C90.4105 10.5833 90.4105 10.5833 89.5492 10.9143C89.2935 12.8543 89.2204 14.7514 89.2343 16.7046C89.236 16.9498 89.2377 17.195 89.2394 17.4477C89.2479 18.4738 89.2587 19.4999 89.2721 20.5259C89.2814 21.2824 89.2868 22.0389 89.2918 22.7954C89.2959 23.0259 89.3 23.2564 89.3043 23.4939C89.3103 24.751 89.2209 25.731 88.6298 26.8499C87.8617 27.618 87.5658 27.5559 86.5014 27.6005C86.1964 27.6137 85.8914 27.627 85.5772 27.6406C85.2572 27.6515 84.9373 27.6623 84.6076 27.6735C84.2947 27.6879 83.9818 27.7024 83.6595 27.7172C81.9123 27.7857 80.229 27.8453 78.5168 27.4628C77.7131 26.7183 77.6009 26.2679 77.4786 25.1692C77.4722 24.7367 77.4709 24.3042 77.4736 23.8717C77.4715 23.6348 77.4694 23.398 77.4672 23.154C77.4616 22.372 77.4628 21.5902 77.4646 20.8082C77.4632 20.264 77.4615 19.7198 77.4597 19.1755C77.4569 18.0351 77.4577 16.8947 77.4607 15.7542C77.4643 14.2936 77.4581 12.8332 77.4491 11.3726C77.4435 10.2487 77.4436 9.12482 77.4453 8.00089C77.4454 7.46244 77.4435 6.92397 77.4397 6.38553C77.4352 5.6321 77.4384 4.8791 77.4437 4.12568C77.4407 3.90387 77.4378 3.68206 77.4347 3.45353C77.45 2.40715 77.5877 1.73838 78.0924 0.81569C79.0586 -0.0136527 79.5991 -0.000667872 80.8635 0.00470906Z" fill="white"/>
<path d="M32.7138 0.0746637C33.1857 0.0719075 33.6576 0.0691119 34.1295 0.0662794C35.1086 0.0612764 36.0877 0.0588747 37.0669 0.0579793C38.3207 0.0563128 39.5742 0.0446774 40.8279 0.0307832C41.798 0.0216809 42.768 0.0194513 43.7382 0.0191435C44.2008 0.0178569 44.6633 0.0140512 45.1259 0.00764605C45.7698 -0.000579172 46.413 0.000867181 47.0569 0.00470886C47.4223 0.00315493 47.7877 0.00160101 48.1642 0C49.0972 0.188387 49.0972 0.188387 49.828 0.815689C50.4429 1.93998 50.4934 2.87653 50.4767 4.12568C50.4792 4.48175 50.4792 4.48175 50.4818 4.84501C50.4856 5.62684 50.4805 6.40833 50.475 7.19016C50.4751 7.73469 50.4755 8.27923 50.4764 8.82376C50.4768 9.9637 50.4729 11.1035 50.466 12.2434C50.4573 13.7044 50.4581 15.1652 50.462 16.6261C50.4641 17.75 50.4617 18.8739 50.4579 19.9978C50.4566 20.5365 50.4565 21.0752 50.4577 21.6139C50.4585 22.3666 50.4535 23.119 50.4468 23.8717C50.4489 24.2053 50.4489 24.2053 50.451 24.5457C50.4325 25.8012 50.3197 26.5706 49.4036 27.4628C47.3839 28.115 44.9163 27.77 42.8148 27.6927C42.5437 27.6847 42.2725 27.6767 41.9931 27.6685C41.7365 27.656 41.4799 27.6434 41.2155 27.6304C40.985 27.6205 40.7545 27.6105 40.517 27.6002C39.6919 27.4155 39.4533 27.2557 38.9842 26.5435C38.6584 24.8134 38.6397 23.1146 38.6586 21.3589C38.6603 20.9818 38.6603 20.9818 38.6621 20.5971C38.6658 19.802 38.6715 19.0069 38.6777 18.2117C38.6859 17.1603 38.692 16.1089 38.6969 15.0574C38.6994 14.8183 38.7019 14.5792 38.7046 14.3328C38.7099 13.1528 38.6604 12.0609 38.3713 10.9143C35.1156 9.82906 29.8504 10.264 26.6853 11.4697C25.3551 12.1376 24.6349 12.9759 23.9679 14.2853C23.3305 16.5269 23.241 18.6932 23.1954 21.0163C23.1823 21.6825 23.1657 22.3485 23.1484 23.0145C23.1121 24.4334 23.0801 25.8523 23.0485 27.2713C22.8095 37.9246 22.8095 37.9246 22.4596 41.294C22.4373 41.5092 22.4151 41.7244 22.3921 41.9461C21.7911 46.9616 19.6989 51.5694 16.0001 55.0438C15.0121 55.8169 13.9939 56.5164 12.9355 57.1889C12.6321 57.3912 12.3287 57.5935 12.0162 57.8018C12.0162 58.1052 12.0162 58.4086 12.0162 58.7212C12.6173 59.1686 12.6173 59.1686 13.3952 59.564C17.6473 62.0279 20.1084 65.6754 21.5186 70.3485C22.7998 75.3074 23.0812 80.4477 23.1132 85.5468C23.1218 86.3271 23.1305 87.1074 23.1395 87.8877C23.1521 89.0986 23.1635 90.3096 23.1715 91.5206C23.18 92.7025 23.1941 93.8842 23.2089 95.066C23.2099 95.4233 23.2109 95.7806 23.212 96.1488C23.2511 98.7928 23.5156 101.421 24.7723 103.789C27.2573 105.816 30.7899 105.631 33.8319 105.647C34.1871 105.649 34.1871 105.649 34.5495 105.651C34.7784 105.651 35.0074 105.65 35.2433 105.649C35.4472 105.649 35.6511 105.649 35.8612 105.648C36.7112 105.598 37.5338 105.453 38.3713 105.302C38.4153 103.689 38.4589 102.075 38.5022 100.462C38.5169 99.9135 38.5318 99.3654 38.5468 98.8174C38.5684 98.0262 38.5896 97.235 38.6107 96.4439C38.6174 96.2018 38.6241 95.9597 38.631 95.7103C38.6607 94.5801 38.6777 93.4535 38.6651 92.3229C38.6779 91.1918 38.8375 90.3989 39.2906 89.3667C40.6085 88.7077 42.3635 88.9907 43.8272 88.9866C44.4777 88.9836 45.1278 88.9741 45.7782 88.9644C46.1914 88.9624 46.6046 88.9608 47.0178 88.9597C47.3943 88.9568 47.7707 88.9539 48.1586 88.951C49.0972 89.0602 49.0972 89.0602 49.6677 89.4879C50.4435 90.5814 50.3724 91.5694 50.3772 92.865C50.3792 93.0993 50.3813 93.3335 50.3833 93.5749C50.3894 94.3516 50.3929 95.1284 50.396 95.9052C50.3973 96.1702 50.3985 96.4352 50.3998 96.7082C50.4062 98.1105 50.4106 99.5127 50.4134 100.915C50.4168 102.365 50.4274 103.814 50.4395 105.264C50.4475 106.377 50.4501 107.491 50.4512 108.605C50.4527 109.139 50.4563 109.674 50.462 110.208C50.4694 110.956 50.4691 111.703 50.467 112.451C50.4729 112.782 50.4729 112.782 50.4789 113.12C50.4687 114.105 50.3772 114.718 49.8397 115.553C48.8168 116.208 48.0899 116.182 46.8784 116.182C46.5462 116.184 46.5462 116.184 46.2073 116.187C45.4754 116.191 44.7438 116.186 44.0119 116.18C43.5003 116.18 42.9887 116.181 42.4771 116.182C41.4033 116.182 40.3297 116.178 39.2559 116.171C37.889 116.163 36.5222 116.163 35.1553 116.167C34.0972 116.169 33.0393 116.167 31.9812 116.163C31.4779 116.162 30.9746 116.162 30.4713 116.163C25.3717 116.169 20.7921 115.451 16.9506 111.826C11.9671 106.398 12.0447 98.7564 11.8737 91.8195C11.862 91.3889 11.8502 90.9582 11.8382 90.5276C11.7881 88.7221 11.7398 86.9166 11.6945 85.1109C11.6665 83.9975 11.636 82.8842 11.604 81.7708C11.587 81.1528 11.5726 80.5347 11.5583 79.9165C11.4176 75.0869 11.0843 69.674 7.41934 66.0761C5.65455 64.7409 3.62159 64.1721 1.51171 63.5922C0.677337 63.318 0.677337 63.318 0.0644278 62.7051C-0.00515292 61.7916 -0.00515292 61.7916 0.00457343 60.6342C0.00544066 60.431 0.0063079 60.2278 0.00720141 60.0184C0.0106345 59.3689 0.0183277 58.7195 0.026121 58.07C0.0291947 57.6299 0.0319913 57.1897 0.0345006 56.7496C0.0412614 55.6702 0.0518433 54.5908 0.0644278 53.5115C1.30612 52.8791 2.52118 52.3591 3.83765 51.9026C6.69476 50.8112 8.8667 49.2814 10.1774 46.463C12.4773 41.1603 11.8163 34.3191 11.8629 28.6887C12.0207 9.64359 12.0207 9.64359 17.5323 3.86584C21.8796 0.230971 27.302 0.0912778 32.7138 0.0746637Z" fill="white"/>
<path d="M86.5612 52.6496C88.164 54.2888 88.703 55.6495 88.783 57.9551C88.7064 60.026 88.365 61.4846 86.8413 62.9338C84.9795 64.4211 83.3667 64.9743 80.9684 64.8503C80.5762 64.7642 80.1839 64.6781 79.7797 64.5893C78.6668 64.4487 78.5768 64.498 77.6154 65.2322C77.3397 65.5515 77.0722 65.878 76.8121 66.2102C76.6677 66.3811 76.5233 66.552 76.3745 66.7281C76.0874 67.0688 75.8033 67.4121 75.5226 67.7582C75.0624 68.3238 74.5792 68.8662 74.0924 69.4088C73.444 70.1549 72.8015 70.9059 72.1603 71.6581C72.0056 71.8393 71.8509 72.0205 71.6915 72.2072C71.3907 72.5597 71.0905 72.9127 70.7909 73.2663C70.6459 73.4364 70.5008 73.6065 70.3515 73.7818C70.1975 73.9709 70.0435 74.1601 69.8849 74.355C69.3232 74.9633 69.3232 74.9633 68.534 75.5591C66.8822 76.9486 66.2146 77.9975 65.9844 80.1266C65.851 82.3066 65.8806 84.4833 65.9138 86.666C65.9144 87.4332 65.9137 88.2003 65.9115 88.9674C65.9091 90.8374 65.9239 92.7066 65.9522 94.5764C66.2358 94.6641 66.5194 94.7518 66.8117 94.8421C68.4373 95.4185 69.492 96.3476 70.3574 97.8133C71.1731 99.6262 71.1902 101.666 70.6531 103.567C69.8634 105.351 68.51 106.645 66.7614 107.491C64.9083 108.094 62.7239 108.079 60.934 107.275C59.193 106.252 57.9944 104.765 57.3714 102.851C57.1043 100.598 57.1916 98.567 58.5972 96.7216C59.749 95.4743 60.5963 94.8789 62.2747 94.5764C62.2686 94.3682 62.2624 94.16 62.2561 93.9455C62.1949 91.768 62.1534 89.5907 62.1232 87.4126C62.1094 86.601 62.0906 85.7896 62.0666 84.9783C62.033 83.8081 62.0175 82.6389 62.0054 81.4683C61.9911 81.1087 61.9769 80.7491 61.9622 80.3787C61.961 78.3425 62.2248 77.244 63.6035 75.7059C64.0751 75.249 64.5512 74.7968 65.0328 74.3504C65.3956 73.9465 65.7543 73.5387 66.1054 73.1246C67.145 71.9309 68.2052 70.7563 69.2657 69.5812C70.0257 68.7343 70.7742 67.8779 71.521 67.0194C72.4094 66.0096 73.316 65.0162 74.2216 64.0219C74.7726 63.3941 75.3014 62.7913 75.7587 62.0922C75.6723 61.2069 75.4274 60.4853 75.1458 59.6406C74.9301 57.4515 75.0202 55.6122 76.3716 53.8179C79.306 50.5971 82.9906 50.2463 86.5612 52.6496ZM79.1872 55.8674C78.3812 57.0879 78.2401 57.5941 78.5168 59.0277C79.2587 60.3417 79.9836 61.0533 81.4281 61.5176C82.6726 61.4732 83.3123 61.2602 84.3394 60.5599C85.0773 59.6745 85.2469 59.1212 85.3929 57.9742C85.2321 56.665 84.8899 56.0396 84.033 55.0438C82.1213 54.018 80.7173 54.4052 79.1872 55.8674ZM61.3553 98.8668C60.6017 99.9972 60.4924 100.926 60.7424 102.238C61.277 103.164 61.9171 103.898 62.8876 104.383C64.4578 104.569 64.4578 104.569 65.8983 104.062C66.5615 103.516 67.0977 103.011 67.4844 102.238C67.6092 100.94 67.5628 100.241 66.9481 99.0774C66.0325 97.9838 65.5502 97.7084 64.1517 97.526C62.9351 97.672 62.3068 98.1099 61.3553 98.8668Z" fill="white"/>
<path d="M66.9865 8.9415C68.7274 9.96429 69.926 11.4518 70.549 13.3659C70.8161 15.6181 70.7288 17.6497 69.3232 19.495C68.1715 20.7423 67.3241 21.3377 65.6457 21.6402C65.6518 21.8484 65.658 22.0566 65.6643 22.2711C65.7255 24.4486 65.767 26.6259 65.7972 28.804C65.811 29.6156 65.8298 30.427 65.8538 31.2383C65.8874 32.4085 65.9029 33.5777 65.9151 34.7483C65.9293 35.1079 65.9435 35.4675 65.9582 35.8379C65.9594 37.8741 65.6956 38.9726 64.3169 40.5107C63.8453 40.9676 63.3692 41.4198 62.8876 41.8662C62.5248 42.2701 62.1662 42.6779 61.815 43.092C60.7754 44.2857 59.7152 45.4603 58.6547 46.6354C57.8947 47.4823 57.1462 48.3387 56.3994 49.1972C55.511 50.207 54.6044 51.2004 53.6988 52.1947C53.1478 52.8225 52.619 53.4253 52.1617 54.1244C52.2481 55.0097 52.493 55.7313 52.7746 56.576C52.9903 58.7651 52.9002 60.6044 51.5488 62.3987C49.8807 64.2296 48.3902 65.026 45.8985 65.2525C43.7077 65.0603 42.0691 64.293 40.5164 62.7051C39.0376 60.7716 39.036 58.6197 39.2906 56.2696C39.6737 55.197 39.6737 55.197 40.21 54.4308C40.387 54.1654 40.5639 53.8999 40.7463 53.6264C42.1534 52.1411 43.7684 51.4062 45.8028 51.328C46.952 51.3663 46.952 51.3663 48.1431 51.6261C49.2553 51.7678 49.3436 51.7186 50.305 50.9844C50.5807 50.6651 50.8482 50.3386 51.1083 50.0064C51.252 49.8364 51.3958 49.6664 51.5439 49.4912C51.8304 49.1514 52.1138 48.809 52.3938 48.4638C52.875 47.8717 53.3787 47.3014 53.8855 46.7312C54.1344 46.4438 54.1344 46.4438 54.3883 46.1506C55.0034 45.4483 55.632 44.7591 56.2605 44.0688C57.4945 42.7041 58.6605 41.2938 59.8099 39.8575C60.436 39.1081 60.436 39.1081 61.0776 38.5503C61.7987 37.7257 61.8188 37.3343 61.8291 36.2522C61.8351 35.9271 61.8412 35.602 61.8474 35.2671C61.8478 34.9181 61.8482 34.5692 61.8485 34.2096C61.8536 33.8509 61.8587 33.4921 61.8639 33.1224C61.8788 31.9765 61.8853 30.8307 61.8916 29.6846C61.9003 28.9077 61.9094 28.1308 61.9192 27.3539C61.9419 25.4494 61.9577 23.5449 61.9683 21.6402C61.6846 21.5525 61.401 21.4648 61.1087 21.3745C59.4831 20.7981 58.4284 19.869 57.563 18.4033C56.7473 16.5904 56.7302 14.5507 57.2673 12.6501C58.057 10.8655 59.4104 9.57137 61.159 8.72602C63.0121 8.12295 65.1965 8.13791 66.9865 8.9415ZM60.7424 13.3659C60.266 14.3189 60.3482 15.0706 60.436 16.124C60.9397 17.0775 61.3647 17.7448 62.2364 18.3841C63.1362 18.6488 63.7902 18.688 64.7263 18.5757C65.8473 17.9505 66.4638 17.5018 67.178 16.4305C67.3783 14.8586 67.3783 14.8586 66.856 13.421C65.8996 12.253 65.3793 11.8683 63.8836 11.7187C62.383 11.7297 61.7696 12.3138 60.7424 13.3659ZM43.581 55.6567C42.8431 56.5421 42.6735 57.0954 42.5275 58.2424C42.6883 59.5516 43.0305 60.177 43.8874 61.1728C44.8098 61.7462 45.3836 61.7851 46.4731 61.8049C47.9437 61.3663 48.6517 60.6586 49.4036 59.3341C49.6449 58.2083 49.6345 57.5957 49.0624 56.588C48.2795 55.554 47.7448 55.1016 46.4923 54.699C45.2478 54.7434 44.6081 54.9564 43.581 55.6567Z" fill="white"/>
</svg>
