<svg width="128" height="124" viewBox="0 0 128 124" fill="none" xmlns="http://www.w3.org/2000/svg">
<path fill-rule="evenodd" clip-rule="evenodd" d="M64 0C28.64 0 0 28.4468 0 63.5682C0 91.6972 18.32 115.456 43.76 123.879C46.96 124.435 48.16 122.528 48.16 120.859C48.16 119.349 48.08 114.343 48.08 109.019C32 111.96 27.84 105.126 26.56 101.55C25.84 99.7226 22.72 94.081 20 92.5712C17.76 91.3793 14.56 88.4393 19.92 88.3598C24.96 88.2804 28.56 92.9685 29.76 94.8756C35.52 104.49 44.72 101.789 48.4 100.12C48.96 95.988 50.64 93.2069 52.48 91.6177C38.24 90.0285 23.36 84.5457 23.36 60.2309C23.36 53.3178 25.84 47.5967 29.92 43.1469C29.28 41.5577 27.04 35.042 30.56 26.3013C30.56 26.3013 35.92 24.6327 48.16 32.8171C53.28 31.3868 58.72 30.6717 64.16 30.6717C69.6 30.6717 75.04 31.3868 80.16 32.8171C92.4 24.5532 97.76 26.3013 97.76 26.3013C101.28 35.042 99.04 41.5577 98.4 43.1469C102.48 47.5967 104.96 53.2384 104.96 60.2309C104.96 84.6252 90 90.0285 75.76 91.6177C78.08 93.6042 80.08 97.4183 80.08 103.378C80.08 111.88 80 118.714 80 120.859C80 122.528 81.2 124.514 84.4 123.879C109.68 115.456 128 91.6177 128 63.5682C128 28.4468 99.36 0 64 0Z" fill="white"/>
</svg>
