<svg width="128" height="100" viewBox="0 0 128 100" fill="none" xmlns="http://www.w3.org/2000/svg">
<path d="M108.428 8.2983C100.143 4.42164 91.2831 1.60425 82.0208 0C80.8833 2.05659 79.5543 4.82275 78.638 7.02322C68.792 5.54249 59.0365 5.54249 49.3715 7.02322C48.4554 4.82275 47.0963 2.05659 45.9486 0C36.6763 1.60425 27.8067 4.432 19.521 8.31883C2.80876 33.5733 -1.72166 58.2004 0.543555 82.4779C11.628 90.7555 22.3702 95.7838 32.9311 99.0743C35.5386 95.4856 37.8642 91.6707 39.8676 87.6501C36.052 86.2003 32.3975 84.4111 28.9444 82.334C29.8605 81.6553 30.7566 80.9457 31.6223 80.2156C52.6837 90.0666 75.5675 90.0666 96.3773 80.2156C97.2532 80.9457 98.1491 81.6553 99.0552 82.334C95.5919 84.4213 91.9274 86.2105 88.1118 87.6605C90.1152 91.6707 92.4308 95.4959 95.0483 99.0845C105.619 95.794 116.372 90.7658 127.456 82.4779C130.114 54.3341 122.916 29.9331 108.428 8.2983ZM42.7369 67.5474C36.4145 67.5474 31.2296 61.6451 31.2296 54.4574C31.2296 47.2698 36.3038 41.3573 42.7369 41.3573C49.1703 41.3573 54.355 47.2595 54.2443 54.4574C54.2543 61.6451 49.1703 67.5474 42.7369 67.5474ZM85.2626 67.5474C78.9402 67.5474 73.7553 61.6451 73.7553 54.4574C73.7553 47.2698 78.8293 41.3573 85.2626 41.3573C91.6958 41.3573 96.8807 47.2595 96.7699 54.4574C96.7699 61.6451 91.6958 67.5474 85.2626 67.5474Z" fill="white"/>
</svg>
