<svg width="128" height="114" viewBox="0 0 128 114" fill="none" xmlns="http://www.w3.org/2000/svg">
<path d="M128 57L96 0H32L0 57L32 114H96L128 57ZM97.1627 65.9047C97.1467 70.3356 96.512 74.3315 95.2747 77.8869C94.1311 81.2647 92.3368 84.382 89.9947 87.0602C87.7777 89.5799 85.0423 91.5831 81.9787 92.9305C78.7873 94.3199 75.3434 95.0242 71.8667 94.9982C69.8033 95.0135 67.7479 94.7387 65.76 94.1819C64.1426 93.7352 62.5873 93.0856 61.1307 92.2484C59.989 91.577 58.9154 90.7945 57.9253 89.9121C56.9944 89.091 56.1605 88.1647 55.44 87.1515H55.2267L55.3333 88.1881C55.392 89.0796 55.4293 89.9658 55.44 90.8573V93.6931H42.4587V30.4791C42.4587 29.6681 42.2453 29.0666 41.8507 28.6692C41.44 28.2717 40.8373 28.0838 40.0907 28.0838H35.7653V16.3164H48.8427C51.3653 16.3003 53.2373 16.8964 54.432 18.0941C55.616 19.2918 56.208 21.1877 56.192 23.7281V39.8565C56.176 41.2422 56.1387 42.3646 56.0853 43.2186L55.9787 44.5452H56.192C56.9051 43.5422 57.734 42.6281 58.6613 41.8222C59.4933 41.0542 60.5493 40.2969 61.8613 39.5342C63.168 38.7716 64.7307 38.1325 66.5333 37.6008C68.56 37.0637 70.64 36.7952 72.7307 36.8059C76.4747 36.822 79.8453 37.531 82.832 38.9274C85.8126 40.3094 88.4479 42.3465 90.544 44.8889C92.6773 47.4669 94.3147 50.539 95.4507 54.0998C96.5813 57.6337 97.1413 61.5759 97.1573 65.9047M82.208 73.456C82.944 71.3131 83.3067 68.8801 83.3227 66.1196C83.3067 62.5802 82.7253 59.5081 81.5733 56.8926C80.4213 54.2931 78.816 52.2791 76.7627 50.8505C74.649 49.4079 72.1478 48.6508 69.5947 48.6807C67.8241 48.6744 66.0691 49.0136 64.4267 49.6796C62.7412 50.3991 61.2309 51.4784 60 52.843C58.6064 54.4248 57.5548 56.2813 56.912 58.2944C56.16 60.5125 55.7813 63.1603 55.76 66.227C55.76 68.3592 56.0427 70.4806 56.608 72.5323C57.1467 74.498 58.0213 76.3563 59.184 78.0105C60.3093 79.6217 61.776 80.9536 63.4773 81.8882C65.184 82.8334 67.2 83.3221 69.488 83.3383C71.3173 83.349 73.1307 82.9623 74.8053 82.1943C76.4914 81.409 77.9902 80.2679 79.2 78.8483C80.48 77.3821 81.4827 75.5882 82.208 73.456Z" fill="white"/>
</svg>
