<svg width="117" height="128" viewBox="0 0 117 128" fill="none" xmlns="http://www.w3.org/2000/svg">
<path d="M11.6405 127.909C8.30813 127.498 5.56919 126.265 3.46933 124.257C1.87161 122.75 0.821686 121.016 0.273897 119.053C2.77531e-06 118.094 0 118.094 0 63.9543C0 9.81455 2.77531e-06 9.7689 0.273897 8.85592C0.821686 6.89301 1.87161 5.15834 3.46933 3.65193C5.34094 1.87161 7.71469 0.684733 10.4993 0.182593C11.4123 -2.78892e-06 13.01 0 58.4308 0C103.852 0 105.449 -2.78892e-06 106.362 0.182593C109.101 0.684733 111.521 1.87161 113.392 3.65193C114.99 5.15834 116.086 6.9843 116.588 8.85592C116.816 9.81455 116.816 9.81455 116.816 64C116.816 118.185 116.816 118.185 116.588 119.144C116.131 121.016 115.036 122.842 113.392 124.348C111.566 126.037 109.375 127.178 106.636 127.772C105.678 128 105.678 128 58.796 128C33.0043 127.909 11.7775 127.909 11.6405 127.909ZM105.86 119.829C107.321 119.327 108.28 118.596 108.782 117.638C109.056 117.044 109.056 117.044 109.056 100.93C109.056 92.0742 109.056 84.816 109.01 84.816C109.01 84.816 108.462 85.1355 107.823 85.5007C98.5563 91.2525 87.6006 95.4522 76.5991 97.4608C71.3038 98.4194 66.7846 98.8759 61.1698 98.9672C56.2853 99.0585 52.7247 98.8759 48.0685 98.2824C34.3281 96.5478 20.7247 91.6177 9.22111 84.0856C8.49072 83.5834 7.85164 83.2183 7.80599 83.2183C7.76034 83.2183 7.76034 90.8417 7.76034 100.154C7.76034 117.09 7.76034 117.09 7.98859 117.592C8.53638 118.779 9.8602 119.692 11.6405 120.057C12.097 120.148 20.4051 120.194 58.6591 120.148C105.084 120.103 105.084 120.103 105.86 119.829ZM64.4108 91.0699C80.388 90.1113 95.224 84.9986 108.051 76.0513L109.056 75.321V50.99V26.6591H95.2696H81.4836V46.5621V66.5107H77.5578H73.6319V46.6077V26.7047H58.3395H43.0471V46.6077V66.5107H39.1212H35.1954V46.6077V26.7047H21.4094H7.62339V50.1227V73.5406L9.03852 74.5906C22.0485 84.3138 38.0713 90.1113 54.5506 91.1155C56.5592 91.2068 62.5392 91.2068 64.4108 91.0699ZM109.056 14.8359C109.056 10.8188 109.056 10.8188 108.782 10.2254C108.325 9.26676 107.321 8.53638 105.86 8.03424C105.084 7.76034 105.084 7.76034 58.4308 7.76034C11.7775 7.76034 11.7318 7.76034 11.0014 8.03424C9.54066 8.53638 8.58202 9.26676 8.07988 10.2254C7.80599 10.8188 7.80599 10.8188 7.80599 14.8359V18.8531H58.4308H109.056V14.8359Z" fill="white"/>
</svg>
