<svg width="512" height="512" viewBox="0 0 512 512" fill="none" xmlns="http://www.w3.org/2000/svg">
<mask id="path-1-inside-1_3_79" fill="white">
<path fill-rule="evenodd" clip-rule="evenodd" d="M301.863 65.5967L294.054 -1.91565e-07H218.13L210.33 65.5219L179.498 71.6547L153.722 88.8774L101.889 48.0725L48.2024 101.759L88.9449 153.513L71.4368 179.716L65.3805 210.163L-1.91565e-07 217.946V293.87L65.2917 301.643L71.4368 332.537L88.7472 358.443L48.0725 410.111L101.759 463.798L153.389 423.152L179.498 440.597L210.172 446.699L217.946 512H293.87L301.644 446.699L332.319 440.597L358.367 423.193L410.111 463.927L463.798 410.241L423.047 358.477L440.38 332.537L446.483 301.854L512 294.054V218.13L446.469 210.328L440.38 179.716L423.062 153.799L463.927 101.889L410.241 48.2024L358.353 89.0504L332.319 71.6547L301.863 65.5967ZM256.401 148.156L296.021 156.037L329.61 178.48L352.053 212.069L359.934 251.689L352.053 291.309L329.61 324.898L296.021 347.341L256.401 355.222L216.781 347.341L183.192 324.898L160.749 291.309L152.868 251.689L160.749 212.069L183.192 178.48L216.781 156.037L256.401 148.156Z"/>
</mask>
<path fill-rule="evenodd" clip-rule="evenodd" d="M301.863 65.5967L294.054 -1.91565e-07H218.13L210.33 65.5219L179.498 71.6547L153.722 88.8774L101.889 48.0725L48.2024 101.759L88.9449 153.513L71.4368 179.716L65.3805 210.163L-1.91565e-07 217.946V293.87L65.2917 301.643L71.4368 332.537L88.7472 358.443L48.0725 410.111L101.759 463.798L153.389 423.152L179.498 440.597L210.172 446.699L217.946 512H293.87L301.644 446.699L332.319 440.597L358.367 423.193L410.111 463.927L463.798 410.241L423.047 358.477L440.38 332.537L446.483 301.854L512 294.054V218.13L446.469 210.328L440.38 179.716L423.062 153.799L463.927 101.889L410.241 48.2024L358.353 89.0504L332.319 71.6547L301.863 65.5967ZM256.401 148.156L296.021 156.037L329.61 178.48L352.053 212.069L359.934 251.689L352.053 291.309L329.61 324.898L296.021 347.341L256.401 355.222L216.781 347.341L183.192 324.898L160.749 291.309L152.868 251.689L160.749 212.069L183.192 178.48L216.781 156.037L256.401 148.156Z" fill="#082E6F"/>
<path d="M301.863 65.5967L298.884 65.9514L299.142 68.1142L301.278 68.5391L301.863 65.5967ZM294.054 -1.91565e-07L297.033 -0.354639L296.718 -3H294.054V-1.91565e-07ZM218.13 -1.91565e-07V-3H215.466L215.151 -0.354639L218.13 -1.91565e-07ZM210.33 65.5219L210.915 68.4642L213.051 68.0393L213.309 65.8765L210.33 65.5219ZM179.498 71.6547L178.912 68.7124L178.327 68.8288L177.831 69.1603L179.498 71.6547ZM153.722 88.8774L151.866 91.2346L153.578 92.5819L155.389 91.3718L153.722 88.8774ZM101.889 48.0725L103.744 45.7153L101.651 44.0674L99.7675 45.9512L101.889 48.0725ZM48.2024 101.759L46.0811 99.6376L44.1973 101.521L45.8452 103.615L48.2024 101.759ZM88.9449 153.513L91.4393 155.18L92.6494 153.369L91.3021 151.657L88.9449 153.513ZM71.4368 179.716L68.9424 178.049L68.6109 178.545L68.4944 179.13L71.4368 179.716ZM65.3805 210.163L65.7351 213.142L67.8979 212.884L68.3228 210.748L65.3805 210.163ZM-1.91565e-07 217.946L-0.354639 214.967L-3 215.282L-3 217.946H-1.91565e-07ZM-1.91565e-07 293.87H-3V296.534L-0.354639 296.849L-1.91565e-07 293.87ZM65.2917 301.643L68.234 301.058L67.8091 298.921L65.6463 298.664L65.2917 301.643ZM71.4368 332.537L68.4944 333.122L68.6109 333.707L68.9424 334.203L71.4368 332.537ZM88.7472 358.443L91.1044 360.299L92.4516 358.588L91.2416 356.777L88.7472 358.443ZM48.0725 410.111L45.7153 408.256L44.0674 410.349L45.9512 412.233L48.0725 410.111ZM101.759 463.798L99.6376 465.919L101.521 467.803L103.615 466.155L101.759 463.798ZM153.389 423.152L155.056 420.658L153.245 419.448L151.534 420.795L153.389 423.152ZM179.498 440.597L177.831 443.092L178.327 443.423L178.912 443.54L179.498 440.597ZM210.172 446.699L213.151 446.344L212.894 444.182L210.757 443.757L210.172 446.699ZM217.946 512L214.967 512.355L215.282 515H217.946V512ZM293.87 512V515H296.534L296.849 512.355L293.87 512ZM301.644 446.699L301.059 443.757L298.923 444.182L298.665 446.344L301.644 446.699ZM332.319 440.597L332.904 443.54L333.489 443.423L333.985 443.092L332.319 440.597ZM358.367 423.193L360.223 420.835L358.511 419.488L356.7 420.698L358.367 423.193ZM410.111 463.927L408.256 466.285L410.349 467.933L412.233 466.049L410.111 463.927ZM463.798 410.241L465.919 412.362L467.803 410.479L466.155 408.385L463.798 410.241ZM423.047 358.477L420.553 356.81L419.342 358.621L420.69 360.332L423.047 358.477ZM440.38 332.537L442.874 334.203L443.205 333.707L443.322 333.122L440.38 332.537ZM446.483 301.854L446.128 298.875L443.965 299.132L443.54 301.268L446.483 301.854ZM512 294.054L512.355 297.033L515 296.718V294.054H512ZM512 218.13H515V215.466L512.355 215.151L512 218.13ZM446.469 210.328L443.526 210.914L443.951 213.05L446.114 213.307L446.469 210.328ZM440.38 179.716L443.322 179.13L443.205 178.545L442.874 178.049L440.38 179.716ZM423.062 153.799L420.705 151.943L419.358 153.654L420.568 155.465L423.062 153.799ZM463.927 101.889L466.285 103.744L467.933 101.651L466.049 99.7675L463.927 101.889ZM410.241 48.2024L412.362 46.0811L410.479 44.1973L408.385 45.8452L410.241 48.2024ZM358.353 89.0504L356.686 91.5448L358.497 92.7549L360.209 91.4076L358.353 89.0504ZM332.319 71.6547L333.985 69.1603L333.489 68.8288L332.904 68.7124L332.319 71.6547ZM296.021 156.037L297.688 153.543L297.192 153.211L296.607 153.095L296.021 156.037ZM256.401 148.156L256.986 145.214L256.401 145.097L255.816 145.214L256.401 148.156ZM329.61 178.48L332.104 176.814L331.773 176.317L331.277 175.986L329.61 178.48ZM352.053 212.069L354.995 211.483L354.879 210.898L354.547 210.402L352.053 212.069ZM359.934 251.689L362.876 252.274L362.993 251.689L362.876 251.104L359.934 251.689ZM352.053 291.309L354.547 292.976L354.879 292.48L354.995 291.895L352.053 291.309ZM329.61 324.898L331.277 327.392L331.773 327.061L332.104 326.564L329.61 324.898ZM296.021 347.341L296.607 350.283L297.192 350.167L297.688 349.835L296.021 347.341ZM256.401 355.222L255.816 358.164L256.401 358.281L256.986 358.164L256.401 355.222ZM216.781 347.341L215.114 349.835L215.61 350.167L216.196 350.283L216.781 347.341ZM183.192 324.898L180.698 326.564L181.03 327.061L181.526 327.392L183.192 324.898ZM160.749 291.309L157.807 291.895L157.923 292.48L158.255 292.976L160.749 291.309ZM152.868 251.689L149.926 251.104L149.81 251.689L149.926 252.274L152.868 251.689ZM160.749 212.069L158.255 210.402L157.923 210.898L157.807 211.483L160.749 212.069ZM183.192 178.48L181.526 175.986L181.03 176.317L180.698 176.814L183.192 178.48ZM216.781 156.037L216.196 153.095L215.61 153.211L215.114 153.543L216.781 156.037ZM304.842 65.2421L297.033 -0.354639L291.075 0.354639L298.884 65.9514L304.842 65.2421ZM294.054 -3H218.13V3H294.054V-3ZM215.151 -0.354639L207.351 65.1672L213.309 65.8765L221.109 0.354638L215.151 -0.354639ZM209.744 62.5795L178.912 68.7124L180.083 74.5971L210.915 68.4642L209.744 62.5795ZM177.831 69.1603L152.055 86.383L155.389 91.3718L181.164 74.1492L177.831 69.1603ZM100.033 50.4297L151.866 91.2346L155.578 86.5202L103.744 45.7153L100.033 50.4297ZM50.3237 103.88L104.01 50.1938L99.7675 45.9512L46.0811 99.6376L50.3237 103.88ZM91.3021 151.657L50.5596 99.9032L45.8452 103.615L86.5877 155.369L91.3021 151.657ZM86.4505 151.846L68.9424 178.049L73.9312 181.382L91.4393 155.18L86.4505 151.846ZM68.4944 179.13L62.4381 209.577L68.3228 210.748L74.3792 180.301L68.4944 179.13ZM65.0258 207.184L-0.354639 214.967L0.354638 220.925L65.7351 213.142L65.0258 207.184ZM-3 217.946V293.87H3V217.946H-3ZM-0.354639 296.849L64.937 304.622L65.6463 298.664L0.354639 290.891L-0.354639 296.849ZM62.3493 302.228L68.4944 333.122L74.3792 331.951L68.234 301.058L62.3493 302.228ZM68.9424 334.203L86.2528 360.11L91.2416 356.777L73.9312 330.87L68.9424 334.203ZM50.4297 411.967L91.1044 360.299L86.3899 356.588L45.7153 408.256L50.4297 411.967ZM103.88 461.676L50.1938 407.99L45.9512 412.233L99.6376 465.919L103.88 461.676ZM151.534 420.795L99.9032 461.44L103.615 466.155L155.245 425.51L151.534 420.795ZM151.723 425.647L177.831 443.092L181.164 438.103L155.056 420.658L151.723 425.647ZM178.912 443.54L209.587 449.641L210.757 443.757L180.083 437.655L178.912 443.54ZM207.193 447.054L214.967 512.355L220.925 511.645L213.151 446.344L207.193 447.054ZM217.946 515H293.87V509H217.946V515ZM296.849 512.355L304.623 447.054L298.665 446.344L290.891 511.645L296.849 512.355ZM302.229 449.641L332.904 443.54L331.733 437.655L301.059 443.757L302.229 449.641ZM333.985 443.092L360.034 425.687L356.7 420.698L330.652 438.103L333.985 443.092ZM411.967 461.57L360.223 420.835L356.511 425.55L408.256 466.285L411.967 461.57ZM461.676 408.12L407.99 461.806L412.233 466.049L465.919 412.362L461.676 408.12ZM420.69 360.332L461.44 412.097L466.155 408.385L425.404 356.621L420.69 360.332ZM425.541 360.143L442.874 334.203L437.885 330.87L420.553 356.81L425.541 360.143ZM443.322 333.122L449.425 302.439L443.54 301.268L437.437 331.951L443.322 333.122ZM446.837 304.832L512.355 297.033L511.645 291.075L446.128 298.875L446.837 304.832ZM515 294.054V218.13H509V294.054H515ZM512.355 215.151L446.823 207.35L446.114 213.307L511.645 221.109L512.355 215.151ZM449.411 209.743L443.322 179.13L437.437 180.301L443.526 210.914L449.411 209.743ZM442.874 178.049L425.557 152.132L420.568 155.465L437.885 181.382L442.874 178.049ZM461.57 100.033L420.705 151.943L425.42 155.654L466.285 103.744L461.57 100.033ZM408.12 50.3237L461.806 104.01L466.049 99.7675L412.362 46.0811L408.12 50.3237ZM360.209 91.4076L412.097 50.5596L408.385 45.8452L356.497 86.6932L360.209 91.4076ZM360.02 86.556L333.985 69.1603L330.652 74.1492L356.686 91.5448L360.02 86.556ZM332.904 68.7124L302.448 62.6544L301.278 68.5391L331.733 74.5971L332.904 68.7124ZM296.607 153.095L256.986 145.214L255.816 151.099L295.436 158.98L296.607 153.095ZM331.277 175.986L297.688 153.543L294.355 158.532L327.943 180.975L331.277 175.986ZM354.547 210.402L332.104 176.814L327.115 180.147L349.559 213.735L354.547 210.402ZM362.876 251.104L354.995 211.483L349.111 212.654L356.992 252.274L362.876 251.104ZM354.995 291.895L362.876 252.274L356.992 251.104L349.111 290.724L354.995 291.895ZM332.104 326.564L354.547 292.976L349.559 289.643L327.115 323.231L332.104 326.564ZM297.688 349.835L331.277 327.392L327.943 322.403L294.355 344.846L297.688 349.835ZM256.986 358.164L296.607 350.283L295.436 344.398L255.816 352.279L256.986 358.164ZM216.196 350.283L255.816 358.164L256.986 352.279L217.366 344.398L216.196 350.283ZM181.526 327.392L215.114 349.835L218.448 344.846L184.859 322.403L181.526 327.392ZM158.255 292.976L180.698 326.564L185.687 323.231L163.244 289.643L158.255 292.976ZM149.926 252.274L157.807 291.895L163.692 290.724L155.811 251.104L149.926 252.274ZM157.807 211.483L149.926 251.104L155.811 252.274L163.692 212.654L157.807 211.483ZM180.698 176.814L158.255 210.402L163.244 213.735L185.687 180.147L180.698 176.814ZM215.114 153.543L181.526 175.986L184.859 180.975L218.448 158.532L215.114 153.543ZM255.816 145.214L216.196 153.095L217.366 158.98L256.986 151.099L255.816 145.214Z" fill="#002664" mask="url(#path-1-inside-1_3_79)"/>
<path d="M241.139 124.738L250.687 96.4108L262.634 96.4108L272.183 124.738L272.183 385.637L267.413 408.939L245.901 408.939L241.139 385.637L241.139 124.738Z" fill="#0E49A7" stroke="#3161A9" stroke-width="3"/>
<path d="M292.36 121.131L334.005 123.024L388.949 138.447V199.279L334.005 214.701L292.36 216.594V121.131Z" fill="#0E49A7" stroke="#3161A9" stroke-width="3"/>
<path d="M220.94 121.131L179.295 123.024L124.351 138.447V199.279L179.295 214.701L220.94 216.594V121.131Z" fill="#0E49A7" stroke="#3161A9" stroke-width="3"/>
</svg>
